# xmcd CD database file
#
# Track frame offsets:
#	182
#	20307
#	39897
#	59465
#	77990
#	82890
#	98192
#	123590
#	136517
#	158020
#	177002
#	181922
#	202055
#	224742
#
# Disc length: 3270 seconds
#
# Revision: 3
# Processed by: cddbd v1.4PL0 Copyright (c) Steve Scherf et al.
# Submitted via: CDex 1.51
#
DISCID=b40cc40e
DTITLE=Vybe - Vybe
DYEAR=1995
DGENRE=RnB
TTITLE0=Take It to the Front
TTITLE1=Warm Summer Daze
TTITLE2=I Can't Fight Anymore
TTITLE3=I like It
TTITLE4=I Don't Like It (Interlude)
TTITLE5=All My Love
TTITLE6=Me
TTITLE7=If I Cry
TTITLE8=Tell Me
TTITLE9=Knocks Me Off My Feet
TTITLE10=Mama's on the Phone (Interlude)
TTITLE11=Funky Low Down Feeling
TTITLE12=Love Is All We Need
TTITLE13=Stay
EXTD=YEAR: 1995
EXTT0=
EXTT1=
EXTT2=
EXTT3=
EXTT4=
EXTT5=
EXTT6=
EXTT7=
EXTT8=
EXTT9=
EXTT10=
EXTT11=
EXTT12=
EXTT13=
PLAYORDER=
